<svg xmlns="http://www.w3.org/2000/svg" width="512" height="512" viewBox="0 0 512 512"><path fill="#008cdb" d="M322.313 292.781c94.687-93.058 91.676-158.973 91.676-158.973.02-15.64-13.554-6.993-13.554-6.993-25.167 20.263-61.338 20.779-61.338 20.779-10.453 45.346-67.784 101.716-82.17 115.296-10.152-9.288-73.025-68.34-84.026-116.057 0 0-36.171-.019-61.338-20.28 0 0-13.572-8.147-13.552 7.49 0 0-3.014 63.922 91.676 156.979C284.375 384.08 295.137 421.879 289.971 448h68.864s4.14-71.842-52.247-139.477a1174.004 1174.004 0 0 1 15.725-15.742z"/><path fill="#008cdb" d="M243.674 378.634c-12.219-15.815-28.517-34.328-50.077-56.382C149.631 385.5 153.162 448 153.162 448h68.864c-3.055-16.075-.526-36.414 21.648-69.366M220.953 148.606h68.231s8.915-1.256 6.741 10.56c-3.091 16.801-39.925 50.85-39.925 50.85s-26.931-25.033-38.926-48.546c0 0-4.843-12.864 3.879-12.864M373.62 77.973c0 16.483-13.35 29.845-29.816 29.845-16.467 0-29.819-13.362-29.819-29.845 0-16.485 13.352-29.847 29.819-29.847 16.466 0 29.816 13.362 29.816 29.847M198.015 77.973c0 16.483-13.35 29.845-29.817 29.845S138.38 94.456 138.38 77.973c0-16.485 13.352-29.847 29.819-29.847 16.466 0 29.816 13.362 29.816 29.847M285.817 53.847c0 16.483-13.35 29.845-29.816 29.845s-29.818-13.362-29.818-29.845c0-16.485 13.351-29.847 29.818-29.847s29.816 13.362 29.816 29.847"/></svg>